<svg xmlns="http://www.w3.org/2000/svg" viewBox="0 0 64 64">
  <defs>
    <linearGradient id="suntopMango" x1="0" y1="0" x2="0" y2="1">
      <stop offset="0%" stop-color="#FBBF24"/>
      <stop offset="100%" stop-color="#D97706"/>
    </linearGradient>
  </defs>
  <!-- Juice Box -->
  <rect x="16" y="14" width="28" height="42" rx="3" fill="url(#suntopMango)"/>
  <!-- Top Straw -->
  <rect x="36" y="6" width="3" height="16" rx="1" fill="#E5E7EB"/>
  <path d="M37.5 6c0-2.5 3.5-3.5 5.5-1" stroke="#E5E7EB" stroke-width="2.5" stroke-linecap="round" fill="none"/>
  <!-- Red Sun Top Banner -->
  <rect x="16" y="18" width="28" height="10" fill="#DC2626"/>
  <text x="30" y="25" text-anchor="middle" font-family="Arial, sans-serif" font-size="6" font-weight="900" fill="#FDE047">سن توب</text>
  <!-- Mango graphic -->
  <path d="M26 33c4-4 10-2 10 5s-5 9-9 7-3-8-1-12z" fill="#EF4444"/>
  <path d="M27 34c3-3 8-1 8 4s-4 7-7 5-2-6-1-9z" fill="#F59E0B"/>
  <path d="M32 30c1-2 3-2 3 0" stroke="#15803D" stroke-width="1.5" stroke-linecap="round" fill="none"/>
  <text x="30" y="52" text-anchor="middle" font-family="Arial, sans-serif" font-size="4.5" font-weight="800" fill="#FFFFFF">مانجا 250مل</text>
  <!-- Highlight -->
  <rect x="18" y="16" width="3" height="24" rx="1.5" fill="rgba(255,255,255,0.25)"/>
  <ellipse cx="30" cy="58" rx="12" ry="2" fill="rgba(0,0,0,0.1)"/>
</svg>
