<svg xmlns="http://www.w3.org/2000/svg" viewBox="0 0 64 64">
  <defs>
    <linearGradient id="ricebag" x1="0" y1="0" x2="0" y2="1">
      <stop offset="0%" stop-color="#FEFCE8"/>
      <stop offset="100%" stop-color="#FEF9C3"/>
    </linearGradient>
  </defs>
  <!-- Bag body -->
  <path d="M14 20c0-2 1-3 3-3h30c2 0 3 1 3 3v30c0 3-2 5-4 5H18c-2 0-4-2-4-5V20z" fill="url(#ricebag)"/>
  <path d="M14 20c0-2 1-3 3-3h30c2 0 3 1 3 3v30c0 3-2 5-4 5H18c-2 0-4-2-4-5V20z" fill="none" stroke="#D4A574" stroke-width="1"/>
  <!-- Tied top -->
  <path d="M22 17c3-5 6-7 10-7s7 2 10 7" fill="none" stroke="#D4A574" stroke-width="2" stroke-linecap="round"/>
  <circle cx="32" cy="12" r="2" fill="#92400E"/>
  <!-- Rice grains -->
  <ellipse cx="24" cy="32" rx="1.5" ry="3" fill="#F5F5F4" transform="rotate(-20 24 32)"/>
  <ellipse cx="30" cy="30" rx="1.5" ry="3" fill="#F5F5F4" transform="rotate(15 30 30)"/>
  <ellipse cx="36" cy="33" rx="1.5" ry="3" fill="#F5F5F4" transform="rotate(-10 36 33)"/>
  <ellipse cx="28" cy="38" rx="1.5" ry="3" fill="#F5F5F4" transform="rotate(10 28 38)"/>
  <ellipse cx="34" cy="40" rx="1.5" ry="3" fill="#F5F5F4" transform="rotate(-15 34 40)"/>
  <ellipse cx="40" cy="36" rx="1.5" ry="3" fill="#F5F5F4" transform="rotate(5 40 36)"/>
  <!-- Label -->
  <rect x="20" y="24" width="24" height="8" rx="2" fill="rgba(139,92,246,0.1)"/>
  <path d="M24 28h16" stroke="#92400E" stroke-width="1" stroke-linecap="round" opacity="0.4"/>
  <!-- Weight text area -->
  <rect x="24" y="44" width="16" height="5" rx="1" fill="rgba(146,64,14,0.1)"/>
  <ellipse cx="32" cy="58" rx="14" ry="2" fill="rgba(0,0,0,0.08)"/>
</svg>
